<svg xmlns="http://www.w3.org/2000/svg" xmlns:xlink="http://www.w3.org/1999/xlink" width="1920" height="1080" viewBox="0 0 1920 1080">
  <defs>
    <clipPath id="clip-path">
      <rect id="Rectangle_104" data-name="Rectangle 104" width="1920" height="1080" fill="#fff" stroke="#707070" stroke-width="1"/>
    </clipPath>
    <clipPath id="clip-path-2">
      <rect id="Rectangle_97" data-name="Rectangle 97" width="2759.083" height="1541.224" fill="none"/>
    </clipPath>
  </defs>
  <g id="Mask_Group_1" data-name="Mask Group 1" clip-path="url(#clip-path)">
    <g id="Group_60" data-name="Group 60" transform="translate(-421.991 -290.975)">
      <rect id="Rectangle_96" data-name="Rectangle 96" width="1951.853" height="1243.73" transform="translate(410.097 148.372)" fill="#f3b3a6"/>
      <g id="Group_59" data-name="Group 59">
        <g id="Group_58" data-name="Group 58" clip-path="url(#clip-path-2)">
          <path id="Path_25" data-name="Path 25" d="M400.869,57.942c-15.884,31.714-37.3,37.528-74.422,36.81C178.152,91.89,56.4,84.1,48.471,176.593c-4.948,57.809,55.557,35.061,75.613-.292,29.821-52.563,98.428-48.274,146.337-47.752,89.469.979,181.743,27.4,206.061-70.9,14.159-57.228-57.691-35.493-75.613.292" transform="translate(194.867 47.296)" fill="#774feb"/>
          <path id="Path_26" data-name="Path 26" d="M429.153,86.226c-15.884,31.714-37.3,37.528-74.422,36.81-148.295-2.862-270.052-10.656-277.976,81.84-4.948,57.809,55.557,35.061,75.613-.292,29.821-52.563,98.428-48.275,146.337-47.752,89.469.979,181.743,27.4,206.061-70.9,14.159-57.228-57.69-35.493-75.613.292" transform="translate(309.253 106.909)" fill="#774feb"/>
          <path id="Path_27" data-name="Path 27" d="M457.438,114.51c-15.884,31.714-37.3,37.528-74.422,36.81-148.294-2.862-270.051-10.656-277.976,81.84-4.948,57.809,55.557,35.061,75.613-.292,29.821-52.563,98.428-48.274,146.337-47.752,89.469.979,181.743,27.4,206.061-70.9,14.159-57.228-57.69-35.493-75.613.292" transform="translate(423.643 166.522)" fill="#774feb"/>
          <path id="Path_28" data-name="Path 28" d="M485.722,142.794c-15.884,31.714-37.3,37.528-74.422,36.81-148.295-2.862-270.051-10.656-277.976,81.84-4.948,57.809,55.557,35.061,75.613-.292,29.821-52.563,98.428-48.274,146.337-47.752,89.469.979,181.743,27.4,206.061-70.9,14.159-57.228-57.69-35.493-75.612.292" transform="translate(538.029 226.135)" fill="#774feb"/>
          <path id="Path_29" data-name="Path 29" d="M514.006,171.079c-15.884,31.714-37.3,37.528-74.422,36.81-148.294-2.862-270.051-10.656-277.976,81.84-4.948,57.809,55.557,35.061,75.613-.292,29.821-52.563,98.428-48.274,146.337-47.752,89.469.979,181.743,27.4,206.061-70.9,14.159-57.228-57.69-35.493-75.613.292" transform="translate(652.416 285.751)" fill="#774feb"/>
          <path id="Path_30" data-name="Path 30" d="M542.291,199.363c-15.884,31.714-37.3,37.528-74.422,36.81-148.294-2.862-270.051-10.656-277.976,81.84-4.948,57.809,55.557,35.061,75.613-.292,29.821-52.563,98.428-48.274,146.337-47.752,89.469.979,181.743,27.4,206.061-70.9,14.159-57.228-57.691-35.493-75.613.292" transform="translate(766.806 345.364)" fill="#774feb"/>
          <path id="Path_31" data-name="Path 31" d="M570.575,227.647c-15.884,31.714-37.3,37.528-74.422,36.81C347.858,261.6,226.1,253.8,218.177,346.3c-4.948,57.809,55.557,35.061,75.613-.292,29.821-52.563,98.428-48.274,146.337-47.752,89.469.979,181.743,27.4,206.061-70.9,14.159-57.228-57.691-35.493-75.613.292" transform="translate(881.192 404.977)" fill="#774feb"/>
          <path id="Path_32" data-name="Path 32" d="M598.859,255.929c-15.884,31.714-37.3,37.528-74.422,36.81-148.294-2.862-270.051-10.656-277.976,81.84-4.948,57.809,55.557,35.061,75.613-.292,29.821-52.563,98.427-48.275,146.337-47.752,89.469.979,181.743,27.4,206.061-70.9,14.159-57.225-57.69-35.49-75.613.292" transform="translate(995.578 464.592)" fill="#774feb"/>
          <path id="Path_33" data-name="Path 33" d="M627.143,284.216c-15.884,31.714-37.3,37.528-74.422,36.81-148.294-2.862-270.051-10.656-277.976,81.84-4.949,57.809,55.557,35.061,75.612-.292,29.821-52.563,98.428-48.275,146.337-47.752,89.469.979,181.743,27.4,206.061-70.9,14.159-57.228-57.69-35.493-75.612.292" transform="translate(1109.964 524.206)" fill="#774feb"/>
          <path id="Path_34" data-name="Path 34" d="M655.428,312.5c-15.884,31.714-37.3,37.528-74.422,36.81-148.294-2.862-270.051-10.656-277.976,81.84-4.948,57.809,55.557,35.061,75.613-.292,29.821-52.563,98.428-48.274,146.337-47.752,89.469.979,181.743,27.4,206.061-70.9,14.159-57.228-57.69-35.493-75.613.292" transform="translate(1224.355 583.819)" fill="#774feb"/>
          <path id="Path_35" data-name="Path 35" d="M683.712,340.784c-15.884,31.714-37.3,37.528-74.422,36.81C461,374.732,339.238,366.938,331.314,459.435c-4.948,57.809,55.557,35.061,75.613-.292,29.821-52.563,98.427-48.274,146.337-47.752,89.469.979,181.743,27.4,206.061-70.9,14.159-57.228-57.691-35.493-75.613.292" transform="translate(1338.741 643.432)" fill="#774feb"/>
          <path id="Path_36" data-name="Path 36" d="M712,369.069c-15.884,31.714-37.3,37.528-74.422,36.81-148.295-2.862-270.052-10.656-277.976,81.84-4.949,57.809,55.557,35.061,75.613-.292,29.821-52.563,98.427-48.275,146.337-47.752,89.469.979,181.743,27.4,206.061-70.9,14.159-57.228-57.69-35.493-75.612.292" transform="translate(1453.127 703.047)" fill="#774feb"/>
          <path id="Path_37" data-name="Path 37" d="M740.28,397.353c-15.884,31.714-37.3,37.528-74.422,36.81C517.563,431.3,395.806,423.507,387.882,516c-4.948,57.809,55.557,35.061,75.613-.292,29.821-52.563,98.427-48.275,146.337-47.752,89.469.979,181.743,27.4,206.06-70.9,14.159-57.228-57.69-35.493-75.612.292" transform="translate(1567.514 762.66)" fill="#774feb"/>
          <path id="Path_38" data-name="Path 38" d="M768.565,425.637c-15.884,31.714-37.3,37.528-74.422,36.81-148.295-2.862-270.052-10.656-277.976,81.841-4.949,57.809,55.557,35.061,75.613-.292,29.821-52.563,98.428-48.275,146.337-47.752,89.469.979,181.743,27.4,206.061-70.9,14.159-57.228-57.691-35.493-75.613.292" transform="translate(1681.904 822.273)" fill="#774feb"/>
          <path id="Path_39" data-name="Path 39" d="M796.849,453.921c-15.884,31.714-37.3,37.528-74.422,36.81-148.295-2.862-270.052-10.656-277.976,81.841-4.949,57.809,55.557,35.06,75.618-.292,29.816-52.563,98.423-48.275,146.332-47.752,89.469.979,181.743,27.4,206.061-70.9,14.159-57.228-57.691-35.493-75.613.292" transform="translate(1796.29 881.886)" fill="#774feb"/>
          <path id="Path_40" data-name="Path 40" d="M531.55,35.5c-15.884,31.717-37.3,37.531-74.422,36.813-148.295-2.862-270.052-10.656-277.976,81.84-4.948,57.809,55.557,35.061,75.613-.3,29.821-52.56,98.428-48.271,146.338-47.749,89.469.979,181.742,27.4,206.061-70.9,14.159-57.228-57.69-35.493-75.613.289" transform="translate(723.367 0.002)" fill="#774feb"/>
          <path id="Path_41" data-name="Path 41" d="M559.835,63.787c-15.884,31.714-37.3,37.528-74.422,36.81-148.295-2.862-270.052-10.656-277.976,81.84-4.948,57.809,55.557,35.061,75.613-.292,29.821-52.563,98.427-48.274,146.337-47.752,89.469.979,181.743,27.4,206.061-70.9,14.159-57.228-57.691-35.493-75.613.292" transform="translate(837.757 59.615)" fill="#774feb"/>
          <path id="Path_42" data-name="Path 42" d="M588.119,92.071c-15.884,31.714-37.3,37.528-74.422,36.81-148.294-2.862-270.052-10.656-277.976,81.84-4.948,57.809,55.557,35.061,75.613-.292,29.821-52.563,98.427-48.274,146.337-47.752,89.469.979,181.743,27.4,206.061-70.9,14.159-57.228-57.69-35.493-75.613.292" transform="translate(952.144 119.228)" fill="#774feb"/>
          <path id="Path_43" data-name="Path 43" d="M616.4,120.355c-15.884,31.714-37.3,37.528-74.422,36.81C393.686,154.3,271.929,146.509,264,239.006c-4.948,57.809,55.557,35.061,75.618-.292,29.816-52.563,98.423-48.274,146.332-47.752,89.469.979,181.743,27.4,206.061-70.9,14.159-57.228-57.69-35.493-75.613.292" transform="translate(1066.53 178.841)" fill="#774feb"/>
          <path id="Path_44" data-name="Path 44" d="M644.688,148.64c-15.889,31.714-37.307,37.528-74.427,36.81-148.294-2.862-270.051-10.656-277.971,81.84-4.953,57.809,55.552,35.061,75.618-.292,29.811-52.563,98.422-48.274,146.327-47.752,89.469.979,181.743,27.4,206.061-70.9,14.164-57.228-57.691-35.493-75.608.292" transform="translate(1180.92 238.457)" fill="#774feb"/>
          <path id="Path_45" data-name="Path 45" d="M672.972,176.924c-15.884,31.714-37.3,37.528-74.422,36.81-148.294-2.862-270.051-10.656-277.976,81.84-4.948,57.809,55.557,35.061,75.618-.292,29.816-52.563,98.422-48.274,146.332-47.752,89.469.979,181.743,27.4,206.061-70.9,14.159-57.228-57.69-35.493-75.613.292" transform="translate(1295.306 298.07)" fill="#774feb"/>
          <path id="Path_46" data-name="Path 46" d="M701.256,205.208c-15.884,31.714-37.3,37.528-74.422,36.81-148.294-2.862-270.051-10.656-277.976,81.84-4.948,57.809,55.557,35.061,75.618-.292C454.292,271,522.9,275.292,570.808,275.814c89.469.979,181.743,27.4,206.061-70.9,14.159-57.228-57.691-35.493-75.613.292" transform="translate(1409.692 357.683)" fill="#774feb"/>
          <path id="Path_47" data-name="Path 47" d="M729.54,233.492c-15.884,31.714-37.3,37.528-74.422,36.81-148.294-2.862-270.051-10.656-277.976,81.84-4.948,57.809,55.557,35.061,75.618-.292,29.816-52.563,98.422-48.274,146.332-47.752,89.469.979,181.743,27.4,206.061-70.9,14.159-57.228-57.69-35.493-75.613.292" transform="translate(1524.078 417.296)" fill="#774feb"/>
          <path id="Path_48" data-name="Path 48" d="M757.825,261.777c-15.884,31.714-37.3,37.528-74.422,36.81-148.295-2.862-270.052-10.656-277.976,81.84-4.948,57.809,55.557,35.061,75.618-.292,29.816-52.563,98.422-48.274,146.332-47.752,89.469.979,181.743,27.4,206.061-70.9,14.159-57.228-57.691-35.493-75.613.292" transform="translate(1638.469 476.912)" fill="#774feb"/>
          <path id="Path_49" data-name="Path 49" d="M786.109,290.061c-15.884,31.714-37.3,37.528-74.422,36.81-148.294-2.862-270.051-10.656-277.976,81.84-4.948,57.809,55.557,35.061,75.618-.292,29.816-52.563,98.422-48.274,146.332-47.752,89.469.979,181.743,27.4,206.061-70.9,14.159-57.228-57.691-35.493-75.613.292" transform="translate(1752.855 536.525)" fill="#774feb"/>
          <path id="Path_50" data-name="Path 50" d="M814.393,318.345c-15.884,31.714-37.3,37.528-74.422,36.81C591.676,352.293,469.919,344.5,461.995,437c-4.948,57.809,55.557,35.061,75.613-.292,29.821-52.563,98.427-48.274,146.337-47.752,89.469.979,181.743,27.4,206.061-70.9,14.159-57.228-57.691-35.493-75.613.292" transform="translate(1867.241 596.138)" fill="#774feb"/>
          <path id="Path_51" data-name="Path 51" d="M693.41,41.6c-15.884,31.714-37.3,37.528-74.422,36.81-148.295-2.862-270.052-10.656-277.976,81.84-4.948,57.809,55.557,35.061,75.618-.292,29.816-52.563,98.422-48.274,146.332-47.752,89.469.979,181.743,27.4,206.061-70.9,14.159-57.228-57.691-35.493-75.612.292" transform="translate(1377.962 12.855)" fill="#774feb"/>
          <path id="Path_52" data-name="Path 52" d="M721.7,69.885c-15.884,31.714-37.3,37.528-74.422,36.81-148.294-2.862-270.052-10.656-277.976,81.84-4.949,57.809,55.557,35.061,75.618-.292,29.816-52.563,98.422-48.274,146.332-47.752,89.469.979,181.743,27.4,206.061-70.9,14.159-57.228-57.691-35.493-75.613.292" transform="translate(1492.352 72.468)" fill="#774feb"/>
          <path id="Path_53" data-name="Path 53" d="M749.979,98.169c-15.884,31.714-37.3,37.528-74.422,36.81-148.294-2.862-270.052-10.656-277.976,81.84-4.948,57.809,55.557,35.061,75.618-.292,29.816-52.563,98.423-48.274,146.332-47.752,89.469.979,181.742,27.4,206.061-70.9,14.159-57.228-57.691-35.493-75.613.292" transform="translate(1606.738 132.081)" fill="#774feb"/>
          <path id="Path_54" data-name="Path 54" d="M778.263,126.451c-15.884,31.717-37.3,37.531-74.422,36.81-148.295-2.862-270.052-10.653-277.976,81.843-4.948,57.809,55.557,35.058,75.618-.3,29.816-52.56,98.422-48.274,146.332-47.752,89.469.979,181.743,27.407,206.061-70.9,14.159-57.225-57.69-35.49-75.613.292" transform="translate(1721.125 191.696)" fill="#774feb"/>
          <path id="Path_55" data-name="Path 55" d="M806.547,154.738c-15.884,31.714-37.3,37.528-74.422,36.81-148.294-2.862-270.052-10.656-277.976,81.84-4.948,57.809,55.557,35.061,75.613-.292,29.821-52.563,98.427-48.275,146.337-47.752,89.469.979,181.743,27.4,206.061-70.9,14.159-57.228-57.691-35.493-75.612.292" transform="translate(1835.511 251.309)" fill="#774feb"/>
          <path id="Path_56" data-name="Path 56" d="M502.371,470.479c-15.884,31.714-37.3,37.528-74.422,36.81-148.295-2.862-270.052-10.656-277.976,81.84-4.948,57.809,55.557,35.061,75.613-.292,29.821-52.563,98.427-48.274,146.337-47.752,89.469.979,181.743,27.4,206.061-70.9,14.159-57.228-57.691-35.493-75.613.292" transform="translate(605.361 916.785)" fill="#774feb"/>
          <path id="Path_57" data-name="Path 57" d="M360.53,330.162c-15.884,31.714-37.3,37.528-74.422,36.81C137.813,364.11,16.056,356.316,8.132,448.813c-4.948,57.809,55.557,35.061,75.613-.292,29.821-52.563,98.428-48.275,146.337-47.752,89.469.979,181.743,27.4,206.061-70.9,14.159-57.228-57.69-35.493-75.613.292" transform="translate(31.728 621.044)" fill="#774feb"/>
          <path id="Path_58" data-name="Path 58" d="M388.814,358.446c-15.884,31.714-37.3,37.528-74.422,36.81C166.1,392.394,44.34,384.6,36.416,477.1c-4.948,57.809,55.557,35.061,75.613-.292,29.821-52.563,98.428-48.274,146.337-47.752,89.469.979,181.743,27.4,206.061-70.9,14.159-57.228-57.691-35.493-75.613.292" transform="translate(146.114 680.657)" fill="#774feb"/>
          <path id="Path_59" data-name="Path 59" d="M417.1,386.731c-15.884,31.714-37.3,37.528-74.422,36.81C194.382,420.679,72.625,412.885,64.7,505.382c-4.948,57.809,55.557,35.061,75.613-.292,29.821-52.563,98.428-48.275,146.337-47.752,89.469.979,181.743,27.4,206.061-70.9,14.159-57.227-57.691-35.493-75.613.292" transform="translate(260.504 740.272)" fill="#774feb"/>
          <path id="Path_60" data-name="Path 60" d="M445.383,415.015c-15.884,31.714-37.3,37.528-74.422,36.81-148.295-2.862-270.052-10.656-277.976,81.84-4.948,57.809,55.557,35.061,75.613-.292,29.821-52.563,98.428-48.274,146.337-47.752,89.469.979,181.743,27.4,206.061-70.9,14.159-57.228-57.691-35.493-75.612.292" transform="translate(374.89 799.886)" fill="#774feb"/>
          <path id="Path_61" data-name="Path 61" d="M473.667,443.3c-15.884,31.714-37.3,37.528-74.422,36.81-148.294-2.862-270.051-10.656-277.976,81.84-4.948,57.809,55.557,35.061,75.613-.292,29.821-52.563,98.428-48.274,146.337-47.752,89.469.979,181.743,27.4,206.061-70.9,14.159-57.228-57.691-35.493-75.613.292" transform="translate(489.276 859.499)" fill="#774feb"/>
          <path id="Path_62" data-name="Path 62" d="M352.684,166.555c-15.884,31.714-37.3,37.528-74.422,36.81C129.967,200.5,8.21,192.709.286,285.206c-4.948,57.809,55.557,35.061,75.613-.292,29.821-52.563,98.428-48.275,146.337-47.752,89.469.979,181.743,27.4,206.061-70.9,14.159-57.228-57.69-35.493-75.613.292" transform="translate(-0.003 276.216)" fill="#774feb"/>
          <path id="Path_63" data-name="Path 63" d="M380.969,194.839c-15.884,31.714-37.3,37.528-74.422,36.81C158.252,228.787,36.5,220.993,28.571,313.49c-4.948,57.809,55.557,35.061,75.613-.292,29.821-52.563,98.428-48.274,146.337-47.752,89.469.979,181.743,27.4,206.061-70.9,14.159-57.228-57.69-35.493-75.613.292" transform="translate(114.387 335.829)" fill="#774feb"/>
          <path id="Path_64" data-name="Path 64" d="M409.253,223.123c-15.884,31.714-37.3,37.528-74.422,36.81-148.295-2.862-270.052-10.656-277.976,81.84-4.948,57.809,55.557,35.061,75.613-.292,29.821-52.563,98.428-48.274,146.337-47.752,89.469.979,181.743,27.4,206.061-70.9,14.159-57.228-57.691-35.493-75.613.292" transform="translate(228.773 395.442)" fill="#774feb"/>
          <path id="Path_65" data-name="Path 65" d="M437.537,251.405c-15.884,31.717-37.3,37.531-74.422,36.81C214.82,285.356,93.063,277.562,85.139,370.059c-4.948,57.809,55.557,35.061,75.613-.3,29.821-52.56,98.427-48.271,146.337-47.752,89.469.982,181.743,27.407,206.061-70.9,14.159-57.228-57.691-35.493-75.613.289" transform="translate(343.159 455.057)" fill="#774feb"/>
          <path id="Path_66" data-name="Path 66" d="M465.821,279.692c-15.884,31.714-37.3,37.528-74.422,36.81-148.295-2.862-270.052-10.656-277.976,81.84-4.948,57.809,55.557,35.061,75.613-.292,29.821-52.563,98.427-48.275,146.337-47.752,89.469.979,181.743,27.4,206.061-70.9,14.159-57.228-57.691-35.493-75.613.292" transform="translate(457.546 514.67)" fill="#774feb"/>
          <path id="Path_67" data-name="Path 67" d="M494.106,307.976c-15.884,31.714-37.3,37.528-74.422,36.81-148.294-2.862-270.051-10.656-277.976,81.84-4.948,57.809,55.557,35.061,75.613-.292,29.821-52.563,98.427-48.275,146.337-47.752,89.469.979,181.743,27.4,206.061-70.9,14.159-57.228-57.691-35.493-75.613.292" transform="translate(571.936 574.284)" fill="#774feb"/>
          <path id="Path_68" data-name="Path 68" d="M522.39,336.26c-15.884,31.714-37.3,37.528-74.422,36.81-148.294-2.862-270.051-10.656-277.976,81.84-4.948,57.809,55.557,35.061,75.613-.292,29.821-52.563,98.428-48.275,146.337-47.752,89.469.979,181.743,27.4,206.061-70.9,14.159-57.228-57.69-35.493-75.613.292" transform="translate(686.322 633.897)" fill="#774feb"/>
          <path id="Path_69" data-name="Path 69" d="M550.674,364.545c-15.884,31.714-37.3,37.528-74.422,36.81C327.957,398.493,206.2,390.7,198.276,483.2c-4.948,57.809,55.557,35.061,75.613-.292,29.821-52.563,98.428-48.275,146.337-47.752,89.469.979,181.743,27.4,206.061-70.9,14.159-57.228-57.691-35.493-75.613.292" transform="translate(800.708 693.512)" fill="#774feb"/>
          <path id="Path_70" data-name="Path 70" d="M578.959,392.829c-15.884,31.714-37.3,37.528-74.422,36.81-148.294-2.862-270.052-10.656-277.976,81.84-4.948,57.809,55.557,35.061,75.613-.292,29.821-52.563,98.428-48.274,146.337-47.752,89.469.979,181.743,27.4,206.061-70.9,14.159-57.228-57.691-35.493-75.613.292" transform="translate(915.099 753.125)" fill="#774feb"/>
          <path id="Path_71" data-name="Path 71" d="M607.243,421.113c-15.884,31.714-37.3,37.528-74.422,36.81-148.294-2.862-270.051-10.656-277.976,81.84-4.948,57.809,55.557,35.061,75.613-.292,29.821-52.563,98.428-48.274,146.337-47.752,89.469.979,181.743,27.4,206.061-70.9,14.159-57.228-57.691-35.493-75.613.292" transform="translate(1029.485 812.738)" fill="#774feb"/>
          <path id="Path_72" data-name="Path 72" d="M635.527,449.4c-15.884,31.714-37.3,37.528-74.422,36.81-148.294-2.862-270.051-10.656-277.976,81.84-4.948,57.809,55.557,35.061,75.613-.292,29.821-52.563,98.427-48.274,146.337-47.752,89.469.979,181.743,27.4,206.061-70.9,14.159-57.228-57.691-35.493-75.613.292" transform="translate(1143.871 872.351)" fill="#774feb"/>
        </g>
      </g>
    </g>
  </g>
</svg>
