<svg id="Lag_1" data-name="Lag 1" xmlns="http://www.w3.org/2000/svg" viewBox="0 0 733.19 109.5"><defs><style>.cls-1{fill:#764feb;}.cls-2{fill:none;stroke:#764feb;stroke-miterlimit:10;stroke-width:3px;}</style></defs><path class="cls-1" d="M69.68,233.65h79.95v21H92.78V277h50.1v21H92.78v40.65H69.68Z" transform="translate(-69.68 -231.4)"/><path class="cls-1" d="M168.08,233.65h79.19V254.2H191v21.3h49.49v20.55H191V318.1h57v20.55H168.08Z" transform="translate(-69.68 -231.4)"/><path class="cls-1" d="M261.38,323.35,275,307c9.45,7.8,19.35,12.75,31.35,12.75,9.45,0,15.15-3.75,15.15-9.9v-.3c0-5.85-3.6-8.85-21.15-13.35-21.15-5.4-34.8-11.25-34.8-32.1v-.3c0-19.05,15.3-31.65,36.75-31.65,15.3,0,28.35,4.8,39,13.35l-12,17.4c-9.3-6.45-18.45-10.35-27.3-10.35s-13.5,4.05-13.5,9.15v.3c0,6.9,4.5,9.15,22.65,13.8,21.3,5.55,33.3,13.2,33.3,31.5v.3c0,20.85-15.9,32.55-38.55,32.55A66.82,66.82,0,0,1,261.38,323.35Z" transform="translate(-69.68 -231.4)"/><path class="cls-1" d="M386.78,255H354.83v-21.3h87V255H409.88v83.7h-23.1Z" transform="translate(-69.68 -231.4)"/><path class="cls-2" d="M460.58,233.65h23.09v105H460.58Z" transform="translate(-69.68 -231.4)"/><path class="cls-2" d="M500.93,233.65h25.5l27.45,74,27.44-74h24.9L563.77,339.4H543.38Z" transform="translate(-69.68 -231.4)"/><path class="cls-2" d="M643.43,232.9h21.3l45,105.75H685.57L676,315.1H631.58L622,338.65H598.43Zm24.3,61.8-14-34.05L639.83,294.7Z" transform="translate(-69.68 -231.4)"/><path class="cls-2" d="M725.93,233.65H749v84h52.34v21H725.93Z" transform="translate(-69.68 -231.4)"/></svg>