<?xml version="1.0" encoding="UTF-8"?><svg id="Layer_1" xmlns="http://www.w3.org/2000/svg" width="180" height="185.27" viewBox="0 0 180 185.27"><defs><style>.cls-1{fill:#f3b3a6;}.cls-2{fill:#fff;}.cls-3{fill:#774feb;}</style></defs><path id="Path_2" class="cls-1" d="M114.43,.43c26.94-3.51,53.53,14.9,59.49,41.05,7.01,30.75,10.19,62.04-3,92.06-15.86,36.1-53.97,56.19-93.84,50.89C38.79,179.34,7.72,150.08,1.37,113.13-5.47,73.3,13.71,35.88,50,18.26c2.38-1.15,44.97-15.3,64.43-17.83"/><path id="Path_6" class="cls-3" d="M93.7,157.04c-5.67,.06-11.11-2.22-14.99-6.29-2.43-2.53-2.78-6.36-.85-9.28,7.4-11.15,7.37-20.53,6.03-26.44-.11-.4-.47-.7-.89-.73-9.34-1.14-14.9-3.44-18.02-7.44-3.8-4.87-2.93-11.01-2.01-17.5,.35-2.45,.71-4.99,.89-7.72l.08-1.21c.56-7.63,.35-12.49-7.45-15.59-5.93-2.36-11.38-7.5-10.34-12.77,.35-1.77,2.01-5.88,9.85-5.88,.91,0,1.9,.05,2.94,.16,16.62,1.65,21.06,11.38,21.69,23.42,2.59-7.77,9.71-13.36,18.07-13.36s14.97,5.2,17.77,12.54c.32-4.99,.35-11.52-2.15-14.17-.53-.57-1.4-1.22-3.39-1.22-.51,0-1.03,.04-1.54,.11-.82,.12-1.64,.18-2.46,.18-7.86,0-12.56-5.41-12.56-10.63,.01-2.81,1.36-5.46,3.65-7.15,2.26-1.72,5.28-2.59,8.97-2.59,.85,0,1.71,.04,2.56,.13,24.72,2.46,25.64,20.89,24.56,37.97l-.02,.17c-.07,.7-1.83,17.12-5.39,25.16-1.1,2.5-4.25,6.64-9.35,12.3-.56,.62-.92,1.39-1.05,2.21l-.03,.19c-2.13,10.32-4.41,27.05-5.3,33.77-.5,3.76-2.93,6.99-6.44,8.56-4,1.94-8.39,3-12.85,3.1m-13.34-75.26c-.13,1.79-.28,3.6-.43,5.4l-.27,3.24c-.31,3.82,.55,5.06,.83,5.35,.68,.52,1.54,.75,2.39,.65,2.44,0,5.63-.97,8.16-1.8-.02-.07-.03-.15-.05-.23-5.23-2.5-9.1-7.1-10.62-12.62"/><path id="Path_7" class="cls-2" d="M107,37.61c.71,0,1.42,.04,2.13,.11,20.26,2.01,21.92,15.55,20.78,33.59,0,0-1.72,16.38-5.06,23.93-1.23,2.78-6.06,8.34-8.65,11.22-1.09,1.21-1.81,2.71-2.06,4.32h0c-2.14,10.34-4.41,26.89-5.35,34.06-.32,2.34-1.85,4.36-4.04,5.34-3.44,1.69-7.22,2.61-11.07,2.71-4.51,.07-8.84-1.73-11.91-4.97-1.1-1.14-1.27-2.87-.41-4.19,8.34-12.58,8.04-23.29,6.62-29.59-.49-2.12-2.29-3.7-4.49-3.95-23.15-2.83-16.51-12.53-15.45-28.28,.45-6.67,1.9-16.18-9.99-20.91-7.44-2.96-12.13-10.67-2.07-10.67,.75,0,1.59,.04,2.52,.13,21.22,2.11,18.6,18.99,16.93,39.62-.67,8.22,2.92,10.48,7.42,10.48s9.61-2.14,12.59-3c-.08-3.22-.07-2.95-.95-6.24-6.19-1.91-10.71-7.93-10.71-15.07,0-8.68,6.67-15.71,14.9-15.71s14.9,7.03,14.9,15.71c0,7.58-5.1,13.91-11.87,15.38,1.16,3,1.43,3.61,2.07,5.04,7.8-3.24,15.45-7.43,16.47-22.21,.51-7.39,3.08-25.05-9.34-25.05-.71,0-1.43,.06-2.13,.16-.62,.09-1.24,.13-1.87,.13-9.99,0-12.25-12.09,.06-12.09m0-8.28c-5.79,0-9.48,1.88-11.55,3.45-3.32,2.48-5.28,6.33-5.29,10.43,.04,3.54,1.43,6.94,3.88,9.53-4.19,.89-8.05,2.92-11.12,5.86-3.45-9.66-11.37-15.17-23.55-16.38-1.19-.12-2.31-.18-3.36-.18-11.28,0-13.56,7.07-13.99,9.24-1.55,7.82,5.6,14.5,12.9,17.4,4.97,1.98,5.37,4.06,4.83,11.45-.03,.42-.06,.84-.09,1.24-.17,2.58-.52,5.04-.86,7.42-1,7.05-2.03,14.35,2.84,20.6,3.57,4.58,9.34,7.3,18.52,8.71,.66,5.14-.09,12.46-5.83,21.12-2.99,4.51-2.45,10.45,1.31,14.37,4.67,4.91,11.23,7.67,18.07,7.6,5.07-.1,10.06-1.29,14.62-3.48,4.82-2.16,8.17-6.62,8.85-11.78,.88-6.67,3.14-23.29,5.25-33.47l.1-.47,.02-.02c8.12-9.03,9.53-12.2,10.06-13.39,3.76-8.48,5.53-24.58,5.72-26.39l.02-.17v-.17c.81-12.75,2.48-39.28-28.33-42.35-.99-.1-1.98-.15-2.98-.15"/></svg>